<svg width="132" height="44" viewBox="0 0 132 44" fill="none" xmlns="http://www.w3.org/2000/svg">
<rect width="132" height="44" fill="white"/>
<path d="M48.8807 27V15.3636H56.8239V17.6477H51.6932V20.0341H56.3182V22.3239H51.6932V27H48.8807ZM63.598 15.3636V27H60.7912V17.9886H60.723L58.1207 19.5795V17.1477L60.9901 15.3636H63.598ZM72.2727 15.3636L74.875 23.8864H74.9716L77.5739 15.3636H80.7216L76.7955 27H73.0511L69.125 15.3636H72.2727ZM84.7869 15.3636V27H81.9744V15.3636H84.7869ZM92.8423 18.8523C92.8045 18.4356 92.6359 18.1117 92.3366 17.8807C92.0412 17.6458 91.6188 17.5284 91.0696 17.5284C90.706 17.5284 90.4029 17.5758 90.1605 17.6705C89.9181 17.7652 89.7363 17.8958 89.6151 18.0625C89.4938 18.2254 89.4313 18.4129 89.4276 18.625C89.42 18.7992 89.4541 18.9527 89.5298 19.0852C89.6094 19.2178 89.723 19.3352 89.8707 19.4375C90.0223 19.536 90.2041 19.6231 90.4162 19.6989C90.6283 19.7746 90.867 19.8409 91.1321 19.8977L92.1321 20.125C92.7079 20.25 93.2154 20.4167 93.6548 20.625C94.098 20.8333 94.4692 21.0814 94.7685 21.3693C95.0715 21.6572 95.3007 21.9886 95.456 22.3636C95.6113 22.7386 95.6908 23.1591 95.6946 23.625C95.6908 24.3598 95.5052 24.9905 95.1378 25.517C94.7704 26.0436 94.242 26.447 93.5526 26.7273C92.867 27.0076 92.0393 27.1477 91.0696 27.1477C90.0961 27.1477 89.2476 27.0019 88.5241 26.7102C87.8007 26.4186 87.2382 25.9754 86.8366 25.3807C86.4351 24.786 86.2287 24.0341 86.2173 23.125H88.9105C88.9332 23.5 89.0336 23.8125 89.2116 24.0625C89.3897 24.3125 89.634 24.5019 89.9446 24.6307C90.259 24.7595 90.6226 24.8239 91.0355 24.8239C91.4143 24.8239 91.7363 24.7727 92.0014 24.6705C92.2704 24.5682 92.4768 24.4261 92.6207 24.2443C92.7647 24.0625 92.8385 23.8542 92.8423 23.6193C92.8385 23.3996 92.7704 23.2121 92.6378 23.0568C92.5052 22.8977 92.3007 22.7614 92.0241 22.6477C91.7514 22.5303 91.4029 22.4223 90.9787 22.3239L89.7628 22.0398C88.7552 21.8087 87.9616 21.4356 87.3821 20.9205C86.8026 20.4015 86.5147 19.7008 86.5185 18.8182C86.5147 18.0985 86.7079 17.4678 87.098 16.9261C87.4882 16.3845 88.0279 15.9621 88.7173 15.6591C89.4067 15.3561 90.1927 15.2045 91.0753 15.2045C91.9768 15.2045 92.759 15.358 93.4219 15.6648C94.0885 15.9678 94.6056 16.3939 94.973 16.9432C95.3404 17.4924 95.5279 18.1288 95.5355 18.8523H92.8423ZM99.2727 27H96.25L100.176 15.3636H103.92L107.847 27H104.824L102.091 18.2955H102L99.2727 27ZM98.8693 22.4205H105.188V24.5568H98.8693V22.4205Z" fill="#DA3C93"/>
<path d="M63.4403 35V29.1818H65.8438C66.2794 29.1818 66.6553 29.267 66.9716 29.4375C67.2898 29.6061 67.535 29.8419 67.7074 30.1449C67.8797 30.446 67.9659 30.7964 67.9659 31.196C67.9659 31.5975 67.8778 31.9489 67.7017 32.25C67.5275 32.5492 67.2784 32.7812 66.9545 32.946C66.6307 33.1108 66.2462 33.1932 65.8011 33.1932H64.3182V32.0852H65.5398C65.7519 32.0852 65.929 32.0483 66.071 31.9744C66.215 31.9006 66.3239 31.7973 66.3977 31.6648C66.4716 31.5303 66.5085 31.3741 66.5085 31.196C66.5085 31.0161 66.4716 30.8608 66.3977 30.7301C66.3239 30.5975 66.215 30.4953 66.071 30.4233C65.9271 30.3513 65.75 30.3153 65.5398 30.3153H64.8466V35H63.4403ZM70.8145 35H69.3031L71.2662 29.1818H73.1384L75.1014 35H73.5901L72.2236 30.6477H72.1781L70.8145 35ZM70.6128 32.7102H73.7719V33.7784H70.6128V32.7102ZM76.4109 30.3239V29.1818H81.3286V30.3239H79.5643V35H78.178V30.3239H76.4109ZM83.6153 35V29.1818H85.0216V31.517H87.3142V29.1818H88.7176V35H87.3142V32.6619H85.0216V35H83.6153Z" fill="#DA3C93"/>
<path d="M11.6174 27.4216L11.62 34.0178C11.62 34.0178 11.9262 35.4856 12.4112 36.302C13.0622 37.3977 13.6323 37.9882 14.7874 38.5865C16.6928 39.5735 18.4375 39.6004 20.3271 38.5886C21.4535 37.9856 22.1136 37.4457 22.6211 36.3059C22.9898 35.4779 23.4007 34.9195 23.4912 34.0228C23.6799 32.1525 23.8671 30.8765 22.9618 29.2106C22.5217 28.4006 22.1038 28.024 21.3786 27.4334C20.3211 26.5722 19.3932 26.5909 18.213 25.8926C16.8956 25.1133 16.1402 24.6567 15.0459 23.6053C13.9552 22.5573 13.3056 21.9235 12.6708 20.5723C12.0211 19.1895 11.4519 18.2743 11.3183 16.7627C11.1167 14.4816 12.4026 10.9236 12.4026 10.9236C12.4026 10.9236 13.6434 8.29113 15.0394 7.10946C16.4216 5.93946 17.495 5.59262 19.2602 5.08788C20.3645 4.7721 22.1623 4.57691 22.1623 4.57691C23.4953 4.45239 25.5921 4.58065 25.5921 4.58065L40.6282 4.59387L43.7935 4.59516C44.6228 4.89902 45.1194 5.1777 45.6405 5.86869C46.6087 7.15248 46.6447 8.67075 45.6422 9.92845C45.2421 10.4304 44.3236 10.9357 44.3236 10.9357L40.6306 10.9343L25.5946 10.9286L22.1648 10.9273C22.1648 10.9273 20.4911 11.6203 19.7921 12.4561C19.0365 13.3596 18.8211 14.0897 18.7366 15.2468C18.6314 16.6861 18.9056 17.6366 19.7946 18.7995C20.4905 19.7097 22.1685 20.5758 22.1685 20.5758L26.3899 20.5774L31.1381 20.5792L34.0397 20.5803C34.0397 20.5803 35.564 21.1045 36.1505 21.8505C37.1424 23.1122 37.2236 24.7011 36.1521 25.8994C35.6093 26.5064 34.306 26.9245 34.306 26.9245L27.1535 26.9215" stroke="#061D6A" stroke-width="5"/>
</svg>
